<?xml version="1.0" encoding="UTF-8"?>
<svg version="1.1" xmlns="http://www.w3.org/2000/svg" width="500" height="500">
<path d="M0 0 C5.78995575 0.06475541 10.99911178 1.24986192 16.55859375 2.78515625 C17.55858398 3.05618164 18.55857422 3.32720703 19.58886719 3.60644531 C46.45863051 11.07263868 70.00696332 22.87810272 90.3515625 42.12890625 C92.55069928 44.24236883 92.55069928 44.24236883 94.921875 45.87890625 C95.48261719 46.32234375 96.04335937 46.76578125 96.62109375 47.22265625 C96.62109375 47.88265625 96.62109375 48.54265625 96.62109375 49.22265625 C97.28109375 49.22265625 97.94109375 49.22265625 98.62109375 49.22265625 C98.62109375 49.88265625 98.62109375 50.54265625 98.62109375 51.22265625 C103.84189783 49.75338681 106.70371188 46.41891268 110.30859375 42.59765625 C112.37596258 40.42244465 114.46398328 38.31208112 116.62109375 36.22265625 C117.28109375 36.22265625 117.94109375 36.22265625 118.62109375 36.22265625 C118.62109375 35.56265625 118.62109375 34.90265625 118.62109375 34.22265625 C120.91825372 32.43563686 123.21166234 30.78443915 125.62109375 29.16015625 C126.34224365 28.67135986 127.06339355 28.18256348 127.80639648 27.67895508 C150.01600814 12.8299401 178.30478087 -0.65851513 205.62109375 0.22265625 C206.74609375 5.84765625 206.74609375 5.84765625 205.62109375 9.22265625 C206.25917969 9.21105469 206.89726562 9.19945313 207.5546875 9.1875 C208.38097656 9.17847656 209.20726562 9.16945313 210.05859375 9.16015625 C210.88230469 9.14855469 211.70601562 9.13695313 212.5546875 9.125 C214.62109375 9.22265625 214.62109375 9.22265625 215.62109375 10.22265625 C215.69335877 12.07553127 215.70490595 13.93099503 215.68359375 15.78515625 C215.67457031 16.79707031 215.66554688 17.80898437 215.65625 18.8515625 C215.63884766 20.02525391 215.63884766 20.02525391 215.62109375 21.22265625 C210.7603673 22.79622476 206.12294424 23.60352933 201.04907227 24.15893555 C169.75480024 27.58512108 134.67166493 36.86102018 108.62109375 55.22265625 C112.23199252 55.22265625 113.89393689 54.20701365 117.078125 52.53125 C135.05288073 43.33203933 154.060744 37.05727003 173.62109375 32.22265625 C174.45801758 32.01415039 175.29494141 31.80564453 176.15722656 31.59082031 C193.05412281 27.47588829 210.60803559 25.11714659 227.99609375 24.72265625 C228.73287354 24.69204102 229.46965332 24.66142578 230.22875977 24.62988281 C232.26953125 24.62890625 232.26953125 24.62890625 235.62109375 25.22265625 C238.81529373 29.14794123 239.0494636 32.8017057 239.00204468 37.67279053 C239.00672465 38.41391909 239.01140462 39.15504765 239.01622641 39.91863465 C239.02817446 42.39743688 239.01871999 44.87568604 239.00927734 47.35449219 C239.01334328 49.13371096 239.01868528 50.91292721 239.02520752 52.69213867 C239.03888832 57.52293426 239.03357824 62.3535377 239.02407026 67.18433666 C239.01647292 72.24368494 239.02351993 77.3030168 239.02822876 82.36236572 C239.03368809 90.86302643 239.02649213 99.36360897 239.01220703 107.86425781 C238.99590119 117.68049837 239.0011533 127.49655179 239.01768625 137.31278777 C239.03132114 145.74694597 239.03321035 154.18104797 239.02537024 162.61521363 C239.02070203 167.64959162 239.02004498 172.68388181 239.02997971 177.71825409 C239.03867548 182.45595505 239.03257986 187.19341613 239.01529694 191.93109131 C239.01134511 193.66564792 239.01244369 195.40022486 239.01908493 197.13477325 C239.08819326 217.02564105 239.08819326 217.02564105 233.24609375 224.09765625 C226.24833549 229.01454635 216.23350696 229.29541473 207.99731445 230.54736328 C178.47479184 235.06355654 143.6926787 242.14884056 119.48950195 260.87158203 C117.62109375 262.22265625 117.62109375 262.22265625 115.62109375 262.22265625 C115.62109375 262.88265625 115.62109375 263.54265625 115.62109375 264.22265625 C110.38270183 268.52482493 105.00533577 271.23710259 98.16015625 270.82421875 C93.45102746 269.70851747 89.34603464 267.28186303 85.62109375 264.22265625 C85.62109375 263.56265625 85.62109375 262.90265625 85.62109375 262.22265625 C84.96238281 261.98804688 84.30367188 261.7534375 83.625 261.51171875 C80.5197694 260.17917506 77.71450474 258.59692723 74.80029297 256.89770508 C47.89582553 241.29475484 17.55672498 233.78199475 -13.03125 229.390625 C-14.33098755 229.20161621 -14.33098755 229.20161621 -15.65698242 229.00878906 C-17.24222408 228.78521128 -18.82962829 228.57619808 -20.41918945 228.38574219 C-26.59581463 227.53964853 -30.49042299 225.26425977 -34.69140625 220.72265625 C-37.7075061 216.25436018 -37.52576854 211.96158715 -37.51934814 206.70054626 C-37.52231927 205.93970452 -37.52529039 205.17886278 -37.52835155 204.39496523 C-37.5370276 201.84394681 -37.53854584 199.29297537 -37.54003906 196.74194336 C-37.54466783 194.91373087 -37.54969257 193.08551935 -37.55508423 191.25730896 C-37.56820034 186.29056101 -37.57465108 181.32382657 -37.57909489 176.35706401 C-37.58202551 173.25607734 -37.58613019 170.15509438 -37.59059906 167.05410957 C-37.60426887 157.357306 -37.61393935 147.66051087 -37.61780095 137.96369833 C-37.62228744 126.7588849 -37.63986485 115.5541931 -37.66880155 104.34941667 C-37.6903821 95.6937319 -37.70050321 87.03808146 -37.70184207 78.38237005 C-37.70289225 73.20954149 -37.7088458 68.03682734 -37.72666168 62.86402702 C-37.74308084 58.00244828 -37.74532801 53.14107076 -37.73652267 48.27947426 C-37.73574912 46.49239947 -37.74013671 44.70531413 -37.74998093 42.9182663 C-37.76260476 40.48452863 -37.75687656 38.05151417 -37.74639893 35.61778259 C-37.75445533 34.90553321 -37.76251173 34.19328383 -37.77081227 33.45945114 C-37.74206349 30.61758277 -37.68526943 28.67527274 -36.06760788 26.2853632 C-33.17587152 24.4655815 -29.99781798 24.78580039 -26.69140625 24.84765625 C-25.51457275 24.86070801 -25.51457275 24.86070801 -24.31396484 24.87402344 C-1.61593004 25.41120292 21.0540105 29.90346835 42.67773438 36.63330078 C45.68162999 37.54428119 48.71595416 38.34147504 51.74609375 39.16015625 C65.10097655 42.98672655 77.31559955 48.87696586 89.62109375 55.22265625 C90.95315402 55.891863 92.2857382 56.56004945 93.62109375 57.22265625 C92.42253514 53.62698042 91.81411087 53.4951728 88.5546875 51.83984375 C87.6884375 51.39906494 86.8221875 50.95828613 85.9296875 50.50415039 C84.50849609 49.80793579 84.50849609 49.80793579 83.05859375 49.09765625 C81.59292969 48.37340454 81.59292969 48.37340454 80.09765625 47.63452148 C64.95063438 40.31241839 48.97442902 34.23959891 32.62109375 30.22265625 C31.35910156 29.89910156 30.09710938 29.57554687 28.796875 29.2421875 C17.69067195 26.52014291 6.44601763 24.99592318 -4.89282227 23.6171875 C-6.10639404 23.46378906 -7.31996582 23.31039062 -8.5703125 23.15234375 C-9.66545166 23.02069824 -10.76059082 22.88905273 -11.88891602 22.75341797 C-12.71061279 22.5782666 -13.53230957 22.40311523 -14.37890625 22.22265625 C-15.61778173 19.7449053 -15.54632294 17.98611918 -15.56640625 15.22265625 C-15.58058594 14.33578125 -15.59476563 13.44890625 -15.609375 12.53515625 C-15.37890625 10.22265625 -15.37890625 10.22265625 -13.37890625 8.22265625 C-10.65021218 8.25553208 -8.08224445 8.78663396 -5.37890625 9.22265625 C-5.39953125 7.92328125 -5.42015625 6.62390625 -5.44140625 5.28515625 C-5.46290079 3.93099992 -5.45038824 2.57509542 -5.37890625 1.22265625 C-3.79420123 -0.36204877 -2.19628436 0.03093968 0 0 Z M98.62109375 171.22265625 C97.94150772 173.61985057 97.94150772 173.61985057 97.62109375 176.22265625 C98.28109375 176.88265625 98.94109375 177.54265625 99.62109375 178.22265625 C100.61109375 178.22265625 101.60109375 178.22265625 102.62109375 178.22265625 C102.95109375 176.24265625 103.28109375 174.26265625 103.62109375 172.22265625 C101.97109375 171.89265625 100.32109375 171.56265625 98.62109375 171.22265625 Z M100.62109375 198.22265625 C99.63109375 198.88265625 98.64109375 199.54265625 97.62109375 200.22265625 C97.95109375 201.54265625 98.28109375 202.86265625 98.62109375 204.22265625 C99.94109375 204.22265625 101.26109375 204.22265625 102.62109375 204.22265625 C102.95109375 202.90265625 103.28109375 201.58265625 103.62109375 200.22265625 C102.63109375 199.56265625 101.64109375 198.90265625 100.62109375 198.22265625 Z " fill="#61AAD4" transform="translate(149.37890625,114.77734375)"/>
<path d="M0 0 C1.1768335 0.01305176 1.1768335 0.01305176 2.37744141 0.02636719 C25.07547621 0.56354667 47.74541675 5.0558121 69.36914062 11.78564453 C72.37303624 12.69662494 75.40736041 13.49381879 78.4375 14.3125 C89.24165821 17.3958501 99.70815422 21.49266356 109.3125 27.375 C109.3125 28.035 109.3125 28.695 109.3125 29.375 C110.6027433 29.8038726 110.6027433 29.8038726 111.91905212 30.2414093 C113.03888992 30.61549423 114.15872772 30.98957916 115.3125 31.375 C116.35729019 31.66863937 117.40208038 31.96227875 118.47853088 32.26481628 C122.39448191 33.82616692 124.54032984 35.16048099 127.3125 38.375 C129.6410536 45.93045865 128.77555076 54.37541781 128.58984375 62.17578125 C128.57506858 64.53750634 128.56517418 66.89926658 128.55995178 69.2610321 C128.53705839 74.20226855 128.47546546 79.140889 128.38256836 84.08129883 C128.26351696 90.42489175 128.20969154 96.76678807 128.18064022 103.11137104 C128.15078034 109.15390572 128.09109162 115.19602311 128.02734375 121.23828125 C128.01715651 122.39606897 128.00696926 123.5538567 127.99647331 124.7467289 C127.96187388 128.00785147 127.90634501 131.26787883 127.84350586 134.52856445 C127.83140579 135.98805008 127.83140579 135.98805008 127.81906128 137.47702026 C127.79759537 138.3615538 127.77612946 139.24608734 127.75401306 140.15742493 C127.74119262 140.92817006 127.72837217 141.6989152 127.71516323 142.49301624 C127.3125 144.375 127.3125 144.375 124.3125 146.375 C123.8125 149.375 123.8125 149.375 124.3125 152.375 C125.3025 153.035 126.2925 153.695 127.3125 154.375 C127.70068359 156.22265625 127.70068359 156.22265625 127.7109375 158.4375 C127.71480469 159.23414063 127.71867188 160.03078125 127.72265625 160.8515625 C127.70525391 162.10066406 127.70525391 162.10066406 127.6875 163.375 C127.69910156 164.20773437 127.71070313 165.04046875 127.72265625 165.8984375 C127.71878906 166.69507813 127.71492187 167.49171875 127.7109375 168.3125 C127.70755371 169.04339844 127.70416992 169.77429688 127.70068359 170.52734375 C127.3125 172.375 127.3125 172.375 124.3125 174.375 C124.0622843 177.45865871 124.0622843 177.45865871 124.3125 180.375 C125.3025 180.375 126.2925 180.375 127.3125 180.375 C127.3125 201.495 127.3125 222.615 127.3125 244.375 C126.3225 244.375 125.3325 244.375 124.3125 244.375 C124.3125 243.715 124.3125 243.055 124.3125 242.375 C123.549375 242.4575 122.78625 242.54 122 242.625 C121.113125 242.5425 120.22625 242.46 119.3125 242.375 C118.85875 241.75625 118.405 241.1375 117.9375 240.5 C115.95041984 237.90151055 114.43486034 237.86423096 111.38183594 237.06298828 C107.34512685 235.7209111 103.78610859 233.38264262 100.125 231.25 C73.47848288 216.24106173 43.76665238 208.86521487 13.66015625 204.54296875 C12.3604187 204.35395996 12.3604187 204.35395996 11.03442383 204.16113281 C9.44918217 203.93755503 7.86177796 203.72854183 6.2722168 203.53808594 C0.09559162 202.69199228 -3.79901674 200.41660352 -8 195.875 C-11.01609985 191.40670393 -10.83436229 187.1139309 -10.82794189 181.85289001 C-10.83091302 181.09204827 -10.83388414 180.33120653 -10.8369453 179.54730898 C-10.84562135 176.99629056 -10.84713959 174.44531912 -10.84863281 171.89428711 C-10.85326158 170.06607462 -10.85828632 168.2378631 -10.86367798 166.40965271 C-10.87679409 161.44290476 -10.88324483 156.47617032 -10.88768864 151.50940776 C-10.89061926 148.40842109 -10.89472394 145.30743813 -10.89919281 142.20645332 C-10.91286262 132.50964975 -10.9225331 122.81285462 -10.9263947 113.11604208 C-10.93088119 101.91122865 -10.9484586 90.70653685 -10.9773953 79.50176042 C-10.99897585 70.84607565 -11.00909696 62.19042521 -11.01043582 53.5347138 C-11.011486 48.36188524 -11.01743955 43.18917109 -11.03525543 38.01637077 C-11.05167459 33.15479203 -11.05392176 28.29341451 -11.04511642 23.43181801 C-11.04434287 21.64474322 -11.04873046 19.85765788 -11.05857468 18.07061005 C-11.07119851 15.63687238 -11.06547031 13.20385792 -11.05499268 10.77012634 C-11.06304908 10.05787696 -11.07110548 9.34562758 -11.07940602 8.61179489 C-11.05065724 5.76992652 -10.99386318 3.82761649 -9.37620163 1.43770695 C-6.48446527 -0.38207475 -3.30641173 -0.06185586 0 0 Z " fill="#373F84" transform="translate(122.6875,139.625)"/>
<path d="M0 0 C5.78995575 0.06475541 10.99911178 1.24986192 16.55859375 2.78515625 C17.55858398 3.05618164 18.55857422 3.32720703 19.58886719 3.60644531 C46.45863051 11.07263868 70.00696332 22.87810272 90.3515625 42.12890625 C92.55069928 44.24236883 92.55069928 44.24236883 94.921875 45.87890625 C95.76298828 46.5440625 95.76298828 46.5440625 96.62109375 47.22265625 C96.62109375 47.88265625 96.62109375 48.54265625 96.62109375 49.22265625 C97.28109375 49.22265625 97.94109375 49.22265625 98.62109375 49.22265625 C98.62109375 49.88265625 98.62109375 50.54265625 98.62109375 51.22265625 C103.84189783 49.75338681 106.70371188 46.41891268 110.30859375 42.59765625 C112.37596258 40.42244465 114.46398328 38.31208112 116.62109375 36.22265625 C117.28109375 36.22265625 117.94109375 36.22265625 118.62109375 36.22265625 C118.62109375 35.56265625 118.62109375 34.90265625 118.62109375 34.22265625 C120.91825372 32.43563686 123.21166234 30.78443915 125.62109375 29.16015625 C126.34224365 28.67135986 127.06339355 28.18256348 127.80639648 27.67895508 C150.01600814 12.8299401 178.30478087 -0.65851513 205.62109375 0.22265625 C206.74609375 5.84765625 206.74609375 5.84765625 205.62109375 9.22265625 C206.25917969 9.21105469 206.89726562 9.19945313 207.5546875 9.1875 C208.38097656 9.17847656 209.20726562 9.16945313 210.05859375 9.16015625 C210.88230469 9.14855469 211.70601562 9.13695313 212.5546875 9.125 C214.62109375 9.22265625 214.62109375 9.22265625 215.62109375 10.22265625 C215.69335877 12.07553127 215.70490595 13.93099503 215.68359375 15.78515625 C215.67457031 16.79707031 215.66554688 17.80898437 215.65625 18.8515625 C215.63884766 20.02525391 215.63884766 20.02525391 215.62109375 21.22265625 C210.7603673 22.79622476 206.12294424 23.60352933 201.04907227 24.15893555 C169.75480024 27.58512108 134.67166493 36.86102018 108.62109375 55.22265625 C112.21803445 55.22265625 113.83926203 54.22866369 117.0078125 52.5546875 C123.35333934 49.30407365 129.81291537 46.54635342 136.43359375 43.91015625 C138.05297852 43.24790039 138.05297852 43.24790039 139.70507812 42.57226562 C145.03899155 40.43673806 149.87479817 38.65711226 155.62109375 38.22265625 C151.93374617 40.68088797 148.92409404 41.23508241 144.62109375 42.22265625 C144.62109375 42.88265625 144.62109375 43.54265625 144.62109375 44.22265625 C142.99713378 44.72602392 141.37188834 45.22524601 139.74609375 45.72265625 C138.84117187 46.00109375 137.93625 46.27953125 137.00390625 46.56640625 C134.62109375 47.22265625 134.62109375 47.22265625 132.62109375 47.22265625 C132.62109375 47.88265625 132.62109375 48.54265625 132.62109375 49.22265625 C131.50734375 49.61453125 130.39359375 50.00640625 129.24609375 50.41015625 C126.30148709 51.64748592 125.7622683 51.95872122 124.18359375 54.91015625 C123.99796875 55.67328125 123.81234375 56.43640625 123.62109375 57.22265625 C123.29109375 56.56265625 122.96109375 55.90265625 122.62109375 55.22265625 C121.63109375 55.88265625 120.64109375 56.54265625 119.62109375 57.22265625 C117.640625 57.4609375 117.640625 57.4609375 115.43359375 57.53515625 C110.8453486 57.91564487 108.14546955 59.47516899 104.54296875 62.26171875 C101.77088385 63.6477612 100.56139818 63.18607515 97.62109375 62.22265625 C94.95389713 60.97820511 92.3823939 59.58621394 89.80859375 58.16015625 C89.11572266 57.78310547 88.42285156 57.40605469 87.70898438 57.01757812 C86.0098039 56.09181773 84.3149995 55.15803313 82.62109375 54.22265625 C85.62109375 53.22265625 85.62109375 53.22265625 87.6640625 54 C88.37175781 54.38285156 89.07945312 54.76570313 89.80859375 55.16015625 C90.52402344 55.54042969 91.23945313 55.92070312 91.9765625 56.3125 C92.51925781 56.61285156 93.06195313 56.91320312 93.62109375 57.22265625 C92.42253514 53.62698042 91.81411087 53.4951728 88.5546875 51.83984375 C87.6884375 51.39906494 86.8221875 50.95828613 85.9296875 50.50415039 C84.50849609 49.80793579 84.50849609 49.80793579 83.05859375 49.09765625 C81.59292969 48.37340454 81.59292969 48.37340454 80.09765625 47.63452148 C64.95063438 40.31241839 48.97442902 34.23959891 32.62109375 30.22265625 C31.35910156 29.89910156 30.09710938 29.57554687 28.796875 29.2421875 C17.69067195 26.52014291 6.44601763 24.99592318 -4.89282227 23.6171875 C-6.10639404 23.46378906 -7.31996582 23.31039062 -8.5703125 23.15234375 C-9.66545166 23.02069824 -10.76059082 22.88905273 -11.88891602 22.75341797 C-12.71061279 22.5782666 -13.53230957 22.40311523 -14.37890625 22.22265625 C-15.61778173 19.7449053 -15.54632294 17.98611918 -15.56640625 15.22265625 C-15.58058594 14.33578125 -15.59476563 13.44890625 -15.609375 12.53515625 C-15.37890625 10.22265625 -15.37890625 10.22265625 -13.37890625 8.22265625 C-10.65021218 8.25553208 -8.08224445 8.78663396 -5.37890625 9.22265625 C-5.39953125 7.92328125 -5.42015625 6.62390625 -5.44140625 5.28515625 C-5.46290079 3.93099992 -5.45038824 2.57509542 -5.37890625 1.22265625 C-3.79420123 -0.36204877 -2.19628436 0.03093968 0 0 Z " fill="#D8E7EE" transform="translate(149.37890625,114.77734375)"/>
<path d="M0 0 C5.78995575 0.06475541 10.99911178 1.24986192 16.55859375 2.78515625 C17.55858398 3.05618164 18.55857422 3.32720703 19.58886719 3.60644531 C44.01771067 10.39439007 68.76149374 20.59382253 86.62109375 39.22265625 C85.96109375 39.22265625 85.30109375 39.22265625 84.62109375 39.22265625 C86.04690235 42.67461392 87.71855709 44.32408185 90.74609375 46.47265625 C91.83277344 47.25382812 91.83277344 47.25382812 92.94140625 48.05078125 C93.49570313 48.4375 94.05 48.82421875 94.62109375 49.22265625 C94.29109375 50.21265625 93.96109375 51.20265625 93.62109375 52.22265625 C94.94109375 52.88265625 96.26109375 53.54265625 97.62109375 54.22265625 C90.74009307 54.22265625 84.17751505 50.02894089 78.0925293 47.07666016 C63.43600718 39.97938007 48.42740913 34.22668968 32.62109375 30.22265625 C30.7184375 29.73345703 30.7184375 29.73345703 28.77734375 29.234375 C17.67642856 26.5207306 6.43912601 24.9950852 -4.89282227 23.6171875 C-6.10639404 23.46378906 -7.31996582 23.31039062 -8.5703125 23.15234375 C-9.66545166 23.02069824 -10.76059082 22.88905273 -11.88891602 22.75341797 C-12.71061279 22.5782666 -13.53230957 22.40311523 -14.37890625 22.22265625 C-15.61778173 19.7449053 -15.54632294 17.98611918 -15.56640625 15.22265625 C-15.58058594 14.33578125 -15.59476563 13.44890625 -15.609375 12.53515625 C-15.37890625 10.22265625 -15.37890625 10.22265625 -13.37890625 8.22265625 C-10.65021218 8.25553208 -8.08224445 8.78663396 -5.37890625 9.22265625 C-5.39953125 7.92328125 -5.42015625 6.62390625 -5.44140625 5.28515625 C-5.46290079 3.93099992 -5.45038824 2.57509542 -5.37890625 1.22265625 C-3.79420123 -0.36204877 -2.19628436 0.03093968 0 0 Z " fill="#D9E5ED" transform="translate(149.37890625,114.77734375)"/>
<path d="M0 0 C1 1 1 1 1.09765625 3.28515625 C1.08605469 4.20167969 1.07445312 5.11820313 1.0625 6.0625 C1.05347656 6.98160156 1.04445313 7.90070313 1.03515625 8.84765625 C1.02355469 9.55792969 1.01195312 10.26820313 1 11 C-0.12921875 11.13462646 -0.12921875 11.13462646 -1.28125 11.27197266 C-32.86271873 15.11904781 -63.05466506 22.49062154 -91.97216797 36.05273438 C-94.22684569 37.10596693 -96.486905 38.14541308 -98.75390625 39.171875 C-99.47006104 39.49768555 -100.18621582 39.82349609 -100.92407227 40.15917969 C-102.93441724 40.97343679 -104.8854342 41.5297658 -107 42 C-106.34 41.01 -105.68 40.02 -105 39 C-104.34 39 -103.68 39 -103 39 C-102.67 38.01 -102.34 37.02 -102 36 C-96.60878415 31.50187445 -90.39252202 27.93231612 -84.34375 24.39453125 C-82.30069225 23.17891189 -80.34594759 21.88943182 -78.375 20.5625 C-68.03665158 14.11916061 -56.44074891 10.28239308 -44.77734375 7.05859375 C-41.83958639 6.23529257 -38.99378412 5.34035313 -36.125 4.3125 C-24.68653929 0.42649703 -12.00449661 -0.39359005 0 0 Z " fill="#69B9D9" transform="translate(363,126)"/>
<path d="M0 0 C7.29502047 -0.33159184 13.57593139 0.62421834 20.6796875 2.28125 C23.3973403 2.8695419 25.92440184 3.23942845 28.6875 3.4375 C33.09018765 3.8414163 36.83459613 5.30818361 40.93359375 6.91015625 C44.31509289 8.11198843 47.69587056 8.92390471 51.1875 9.75 C59.78019858 11.98096434 67.24852479 15.73668863 75 20 C75.62326172 20.34111816 76.24652344 20.68223633 76.88867188 21.03369141 C99.07822191 33.26142493 99.07822191 33.26142493 105 40 C100.80725868 40 97.73221466 38.02355763 94.0625 36.1875 C88.06341587 33.26709317 82.43500356 31.09568877 75.8828125 29.703125 C72.65799714 28.91658467 69.70617162 27.79496865 66.625 26.5625 C54.12391796 21.60952088 41.11264632 18.79498584 28 16 C28 15.34 28 14.68 28 14 C27.43603516 13.94465088 26.87207031 13.88930176 26.29101562 13.83227539 C23.69390274 13.576765 21.09695183 13.319642 18.5 13.0625 C17.1696875 12.93198242 17.1696875 12.93198242 15.8125 12.79882812 C10.53006818 12.27446908 5.26435854 11.68264462 0 11 C0 7.37 0 3.74 0 0 Z " fill="#38558B" transform="translate(136,125)"/>
<path d="M0 0 C1.1768335 0.01305176 1.1768335 0.01305176 2.37744141 0.02636719 C16.92884495 0.3707457 31.42130838 2.66822647 45.6875 5.4375 C46.5316748 5.59959961 47.37584961 5.76169922 48.24560547 5.92871094 C54.06293198 7.12543198 54.06293198 7.12543198 56.3125 9.375 C51.89201133 8.95400108 47.66718451 8.51617604 43.375 7.375 C37.94094039 6.0715924 32.44809695 6.0114539 26.88891602 5.76953125 C23.08536266 5.58677794 19.50601212 5.371662 15.8125 4.375 C11.15719515 3.24214395 6.58345367 2.95769365 1.8125 2.6875 C0.99716797 2.63916016 0.18183594 2.59082031 -0.65820312 2.54101562 C-2.6662347 2.44086866 -4.67716008 2.40245212 -6.6875 2.375 C-8.39339706 4.08089706 -7.80979238 6.22776894 -7.81658131 8.50314623 C-7.81366847 9.24340451 -7.81075563 9.9836628 -7.80775452 10.74635315 C-7.80860894 11.52716608 -7.80946337 12.307979 -7.81034368 13.11245292 C-7.81200086 15.7489009 -7.80647326 18.38528632 -7.80102539 21.02172852 C-7.80074354 22.90362547 -7.8009012 24.78552254 -7.8014679 26.66741943 C-7.80175597 31.79323935 -7.79585767 36.91903608 -7.78889394 42.04485059 C-7.78266202 47.39537264 -7.78205673 52.74589517 -7.78086853 58.09642029 C-7.77775474 68.23598358 -7.7695407 78.37553614 -7.75951904 88.5150947 C-7.74835939 100.05540474 -7.74284783 111.59571528 -7.73782361 123.13602936 C-7.72735813 146.88235886 -7.70975776 170.62867883 -7.6875 194.375 C-9.6875 193.375 -9.6875 193.375 -10.30372238 191.78263187 C-10.83148805 188.47168986 -10.83202185 185.19611694 -10.82794189 181.85289001 C-10.83091302 181.09204827 -10.83388414 180.33120653 -10.8369453 179.54730898 C-10.84562135 176.99629056 -10.84713959 174.44531912 -10.84863281 171.89428711 C-10.85326158 170.06607462 -10.85828632 168.2378631 -10.86367798 166.40965271 C-10.87679409 161.44290476 -10.88324483 156.47617032 -10.88768864 151.50940776 C-10.89061926 148.40842109 -10.89472394 145.30743813 -10.89919281 142.20645332 C-10.91286262 132.50964975 -10.9225331 122.81285462 -10.9263947 113.11604208 C-10.93088119 101.91122865 -10.9484586 90.70653685 -10.9773953 79.50176042 C-10.99897585 70.84607565 -11.00909696 62.19042521 -11.01043582 53.5347138 C-11.011486 48.36188524 -11.01743955 43.18917109 -11.03525543 38.01637077 C-11.05167459 33.15479203 -11.05392176 28.29341451 -11.04511642 23.43181801 C-11.04434287 21.64474322 -11.04873046 19.85765788 -11.05857468 18.07061005 C-11.07119851 15.63687238 -11.06547031 13.20385792 -11.05499268 10.77012634 C-11.06304908 10.05787696 -11.07110548 9.34562758 -11.07940602 8.61179489 C-11.05065724 5.76992652 -10.99386318 3.82761649 -9.37620163 1.43770695 C-6.48446527 -0.38207475 -3.30641173 -0.06185586 0 0 Z " fill="#CED0DF" transform="translate(122.6875,139.625)"/>
<path d="M0 0 C0.78375 -0.03738281 1.5675 -0.07476562 2.375 -0.11328125 C4.65625 -0.1484375 4.65625 -0.1484375 8.5 0.375 C11.73488958 4.26822115 11.92628703 7.9753094 11.8742218 12.83859253 C11.87819621 13.58113222 11.88217061 14.32367192 11.88626546 15.08871281 C11.89587546 17.57219583 11.88407836 20.05510734 11.87231445 22.53857422 C11.87474289 24.32103691 11.87846272 26.10349824 11.88337708 27.88595581 C11.89278394 32.72489111 11.88336158 37.56362405 11.87004495 42.40254354 C11.85872659 47.46816125 11.86283835 52.53376904 11.86479187 57.59939575 C11.86567488 66.10845239 11.85459424 74.61742937 11.83618164 83.12646484 C11.81502752 92.95861922 11.81150123 102.79065679 11.8177436 112.62282932 C11.82344298 122.08471076 11.81778393 131.54655114 11.80657005 141.00842667 C11.8019303 145.03297817 11.80104754 149.05750451 11.8031559 153.08205795 C11.80504272 157.82463727 11.79690457 162.56709811 11.7810955 167.30965042 C11.77686089 169.04827128 11.77599656 170.78690418 11.77878571 172.52552795 C11.78202038 174.90296109 11.77289346 177.28004313 11.76069641 179.65744019 C11.7663654 180.68396834 11.7663654 180.68396834 11.77214891 181.73123443 C11.73063942 186.3206981 10.90841975 190.05448214 9.5 194.375 C8.2674801 190.55756455 8.36654587 186.76660248 8.38647461 182.8014679 C8.38632575 182.03513147 8.38617689 181.26879505 8.38602352 180.4792363 C8.38671837 177.90971359 8.3945622 175.34026225 8.40234375 172.77075195 C8.4042627 170.92944377 8.40572661 169.08813506 8.4067688 167.24682617 C8.40993094 163.28154346 8.4162011 159.316282 8.42483521 155.35100746 C8.4383369 149.08729332 8.44424708 142.82358629 8.44897461 136.55986023 C8.46008076 123.26906402 8.47962672 109.97828474 8.5 96.6875 C8.52199568 82.33019212 8.54257224 67.97289109 8.55341816 53.61556977 C8.55841647 47.38213275 8.56829926 41.14872787 8.58184814 34.91530383 C8.58927787 31.0475378 8.59261733 27.17977629 8.5948143 23.31200409 C8.5966952 21.51119152 8.60031358 19.71037986 8.60574722 17.90957451 C8.61290253 15.46222226 8.61400371 13.01494201 8.61352539 10.56758118 C8.61712035 9.84561517 8.62071531 9.12364915 8.62441921 8.37980539 C8.90163878 5.09578711 8.90163878 5.09578711 7.5 2.375 C-1.34188129 1.81097755 -11.23966269 1.730416 -19.58203125 4.875 C-25.33444199 6.87822222 -31.02011858 6.9350236 -37.0625 7.0625 C-38.16658203 7.09666016 -39.27066406 7.13082031 -40.40820312 7.16601562 C-43.10536703 7.24774786 -45.80223643 7.31713826 -48.5 7.375 C-45.43386581 5.65945157 -42.70500503 4.90998057 -39.24609375 4.33984375 C-37.7156543 4.08557617 -37.7156543 4.08557617 -36.15429688 3.82617188 C-34.56198242 3.5719043 -34.56198242 3.5719043 -32.9375 3.3125 C-31.38579102 3.05243164 -31.38579102 3.05243164 -29.80273438 2.78710938 C-19.90760442 1.1699341 -10.02622891 0.1888502 0 0 Z " fill="#DEEDF4" transform="translate(376.5,139.625)"/>
<path d="M0 0 C7.29502047 -0.33159184 13.57593139 0.62421834 20.6796875 2.28125 C23.3973403 2.8695419 25.92440184 3.23942845 28.6875 3.4375 C34.73355764 3.97164419 40.5962455 6.29812275 46 9 C46 10.32 46 11.64 46 13 C45.34 13 44.68 13 44 13 C44.495 14.98 44.495 14.98 45 17 C28.43251708 15.19333713 28.43251708 15.19333713 23.0625 14 C15.49298909 12.33550022 7.69942753 11.78839454 0 11 C0 7.37 0 3.74 0 0 Z " fill="#3C4A83" transform="translate(136,125)"/>
<path d="M0 0 C-2.72864461 1.8190964 -3.97528529 2.36918953 -7.04296875 3.0078125 C-7.85725342 3.18546143 -8.67153809 3.36311035 -9.51049805 3.54614258 C-10.83561401 3.832677 -10.83561401 3.832677 -12.1875 4.125 C-30.137588 8.22398688 -47.31217888 14.23931243 -63.97216797 22.05273438 C-66.22684569 23.10596693 -68.486905 24.14541308 -70.75390625 25.171875 C-71.47006104 25.49768555 -72.18621582 25.82349609 -72.92407227 26.15917969 C-74.93441724 26.97343679 -76.8854342 27.5297658 -79 28 C-78.01 26.515 -78.01 26.515 -77 25 C-76.34 25 -75.68 25 -75 25 C-74.67 24.01 -74.34 23.02 -74 22 C-68.61677698 17.50854322 -62.4105652 13.94338838 -56.37109375 10.41015625 C-54.1781389 9.10594422 -52.06310423 7.72255429 -49.9375 6.3125 C-45.87503725 3.73711462 -41.60577071 2.31136527 -37 1 C-36.505 1.99 -36.505 1.99 -36 3 C-39.08809695 4.76462683 -40.23312136 5 -44 5 C-44 5.99 -44 6.98 -44 8 C-45.65 8.66 -47.3 9.32 -49 10 C-46.41819113 11.29090443 -45.66865804 10.79186901 -42.94921875 9.9609375 C-42.11519531 9.71230957 -41.28117187 9.46368164 -40.421875 9.20751953 C-39.51953125 8.93278809 -38.6171875 8.65805664 -37.6875 8.375 C-29.99875075 6.1066051 -22.29553545 3.99581822 -14.5 2.125 C-13.62303467 1.91020996 -12.74606934 1.69541992 -11.8425293 1.47412109 C-7.82879043 0.52431401 -4.15751884 -0.2896632 0 0 Z " fill="#8BBDD9" transform="translate(335,140)"/>
<path d="M0 0 C2.44768607 2.44768607 2.24072823 3.77957558 2.26748681 7.11990041 C2.26302537 7.83690722 2.25856392 8.55391403 2.25396729 9.29264832 C2.25708727 10.0530425 2.26020725 10.81343668 2.26342177 11.5968731 C2.27143338 14.15865382 2.26506579 16.72019972 2.25878906 19.28198242 C2.26149764 21.11326232 2.26505781 22.94454114 2.26940918 24.77581787 C2.27855456 29.76157463 2.27497926 34.74724893 2.26865101 39.73300719 C2.26359828 44.9467884 2.26828079 50.1605624 2.27142334 55.37434387 C2.27506673 64.13670115 2.27025582 72.89902478 2.26074219 81.66137695 C2.24987388 91.7882747 2.2533699 101.91509183 2.264395 112.0419876 C2.27347752 120.73251827 2.27474791 129.4230247 2.26951766 138.11355859 C2.26640109 143.30551334 2.2659797 148.49743024 2.27259064 153.68938255 C2.27837687 158.57554764 2.27434374 163.46160914 2.26280212 168.34776306 C2.26016165 170.13959901 2.26091015 171.93144369 2.26532745 173.72327614 C2.27080899 176.17311219 2.26391708 178.62261832 2.25396729 181.07243347 C2.25842873 181.77828667 2.26289017 182.48413988 2.26748681 183.21138257 C2.22641444 188.44120587 1.83701742 193.80971 -1.625 197.9375 C-2.07875 198.288125 -2.5325 198.63875 -3 199 C-3.66 198.67 -4.32 198.34 -5 198 C-4.01 197.01 -4.01 197.01 -3 196 C-3 194.68 -3 193.36 -3 192 C-2.34 191.67 -1.68 191.34 -1 191 C0.41870509 187.33343882 0.13627151 183.4063098 0.12025452 179.53363037 C0.12153615 178.40144337 0.12153615 178.40144337 0.12284368 177.24638391 C0.12449144 174.71598964 0.11898862 172.1856616 0.11352539 169.65527344 C0.11324334 167.84189862 0.1134016 166.02852368 0.1139679 164.21514893 C0.11425518 159.28991305 0.10836959 154.36470147 0.10139394 149.43947124 C0.09514891 144.29316518 0.09455569 139.14685858 0.09336853 134.00054932 C0.09025861 124.25420295 0.08204978 114.50786778 0.07201904 104.76152635 C0.06084739 93.66612021 0.0553448 82.57071354 0.05032361 71.47530317 C0.0398669 48.65019569 0.02207292 25.82509895 0 3 C-8.58 3 -17.16 3 -26 3 C-19.45321617 -1.36452255 -7.73065491 -0.817399 0 0 Z " fill="#72B9D2" transform="translate(384,141)"/>
<path d="M0 0 C0.66 0.33 1.32 0.66 2 1 C0.37660195 2.70884005 -1.29319053 4.37446717 -3 6 C-3.66 6 -4.32 6 -5 6 C-5 6.99 -5 7.98 -5 9 C-8.63 9.66 -12.26 10.32 -16 11 C-16 11.66 -16 12.32 -16 13 C-23.94605012 15.35862583 -31.8301386 17.56933303 -40 19 C-40 18.01 -40 17.02 -40 16 C-38.02 15.67 -36.04 15.34 -34 15 C-34 14.01 -34 13.02 -34 12 C-33.030625 11.731875 -32.06125 11.46375 -31.0625 11.1875 C-30.051875 10.795625 -29.04125 10.40375 -28 10 C-27.67 9.01 -27.34 8.02 -27 7 C-24.6015625 5.8671875 -24.6015625 5.8671875 -21.625 4.875 C-20.64789063 4.54242188 -19.67078125 4.20984375 -18.6640625 3.8671875 C-17.78492188 3.58101562 -16.90578125 3.29484375 -16 3 C-15.01 2.67 -14.02 2.34 -13 2 C-10.16831682 1.69705618 -7.33597165 1.49244942 -4.49609375 1.28125 C-2.00411573 1.1454973 -2.00411573 1.1454973 0 0 Z " fill="#5BAAD0" transform="translate(325,133)"/>
<path d="M0 0 C6.86476118 1.08918967 12.77470211 2.90238801 19 6 C19 7.32 19 8.64 19 10 C17.68 10.33 16.36 10.66 15 11 C17.54642509 14.11229733 20.25510724 14.77883932 24 16 C24.495 16.99 24.495 16.99 25 18 C19.38303353 16.8966673 14.00285679 15.39444938 8.5625 13.625 C-0.16135983 10.80319274 -9.02888654 8.85859874 -18 7 C-18 6.67 -18 6.34 -18 6 C-15.72886197 6.14100857 -13.45809275 6.28796755 -11.1875 6.4375 C-9.92292969 6.51871094 -8.65835938 6.59992188 -7.35546875 6.68359375 C-4 7 -4 7 -1 8 C-1.20625 7.4225 -1.4125 6.845 -1.625 6.25 C-2.08955171 3.46268972 -1.33184618 2.41969001 0 0 Z " fill="#52689A" transform="translate(182,134)"/>
<path d="M0 0 C-5.445 1.485 -5.445 1.485 -11 3 C-11 3.66 -11 4.32 -11 5 C-12.62395997 5.50336767 -14.24920541 6.00258976 -15.875 6.5 C-16.77992188 6.7784375 -17.68484375 7.056875 -18.6171875 7.34375 C-21 8 -21 8 -23 8 C-23 8.66 -23 9.32 -23 10 C-24.11375 10.391875 -25.2275 10.78375 -26.375 11.1875 C-29.31960666 12.42482967 -29.85882545 12.73606497 -31.4375 15.6875 C-31.623125 16.450625 -31.80875 17.21375 -32 18 C-32.33 17.34 -32.66 16.68 -33 16 C-33.99 16.66 -34.98 17.32 -36 18 C-37.98046875 18.23828125 -37.98046875 18.23828125 -40.1875 18.3125 C-44.80747377 18.69686976 -47.59671459 20.3004335 -51.2734375 23.0390625 C-51.84320313 23.35617188 -52.41296875 23.67328125 -53 24 C-53.99 23.67 -54.98 23.34 -56 23 C-55.1875 19.5625 -55.1875 19.5625 -54 16 C-53.01 15.67 -52.02 15.34 -51 15 C-50.8453125 13.8553125 -50.8453125 13.8553125 -50.6875 12.6875 C-49.92322204 9.69986796 -49.46799585 8.78716941 -47 7 C-45.96875 6.67 -44.9375 6.34 -43.875 6 C-42.92625 5.67 -41.9775 5.34 -41 5 C-40.67 4.01 -40.34 3.02 -40 2 C-38.02 1.67 -36.04 1.34 -34 1 C-36.52694951 3.02155961 -39.05077201 5.03868344 -41.625 7 C-43.82889285 8.85590977 -45.38955575 10.62671374 -47 13 C-46.21625 12.484375 -45.4325 11.96875 -44.625 11.4375 C-43.75875 10.963125 -42.8925 10.48875 -42 10 C-41.34 10.33 -40.68 10.66 -40 11 C-42.31 12.65 -44.62 14.3 -47 16 C-43.4045311 16 -41.79430457 15.00826742 -38.62890625 13.33203125 C-32.2074119 10.04051969 -25.65256773 7.3165313 -18.9375 4.6875 C-17.82439453 4.24599609 -16.71128906 3.80449219 -15.56445312 3.34960938 C-4.34753255 -1.08688314 -4.34753255 -1.08688314 0 0 Z " fill="#D5E2EF" transform="translate(305,154)"/>
<path d="M0 0 C0.78375 -0.03738281 1.5675 -0.07476562 2.375 -0.11328125 C4.65625 -0.1484375 4.65625 -0.1484375 8.5 0.375 C11.46702386 4.07142085 11.86902865 6.97731176 11.84057617 11.6340332 C11.84023628 13.49539665 11.84023628 13.49539665 11.83988953 15.3943634 C11.82457212 16.73817307 11.80892417 18.08197901 11.79296875 19.42578125 C11.78736898 20.8086857 11.78310068 22.19159612 11.78010559 23.57450867 C11.76868664 27.20289731 11.7392455 30.83092199 11.70599365 34.45916748 C11.67522872 38.16608762 11.66158659 41.87306694 11.64648438 45.58007812 C11.61437241 52.84521747 11.56321247 60.11005761 11.5 67.375 C10.51 67.87 10.51 67.87 9.5 68.375 C9.48969254 67.56289566 9.47938507 66.75079132 9.46876526 65.91407776 C9.37096021 58.27663512 9.26847052 50.63927678 9.16066074 43.00196934 C9.10539585 39.07515386 9.0519703 35.14833099 9.00268555 31.22143555 C8.95509439 27.43479158 8.90275376 23.64824084 8.84705925 19.86170769 C8.82661182 18.41398362 8.80790276 16.96623397 8.79092598 15.51846504 C8.76693492 13.49735841 8.73629925 11.4763339 8.70532227 9.45532227 C8.68977798 8.30282486 8.6742337 7.15032745 8.65821838 5.96290588 C8.79117368 3.44529411 8.79117368 3.44529411 7.5 2.375 C-1.34188129 1.81097755 -11.23966269 1.730416 -19.58203125 4.875 C-25.33444199 6.87822222 -31.02011858 6.9350236 -37.0625 7.0625 C-38.16658203 7.09666016 -39.27066406 7.13082031 -40.40820312 7.16601562 C-43.10536703 7.24774786 -45.80223643 7.31713826 -48.5 7.375 C-45.43386581 5.65945157 -42.70500503 4.90998057 -39.24609375 4.33984375 C-37.7156543 4.08557617 -37.7156543 4.08557617 -36.15429688 3.82617188 C-34.56198242 3.5719043 -34.56198242 3.5719043 -32.9375 3.3125 C-31.38579102 3.05243164 -31.38579102 3.05243164 -29.80273438 2.78710938 C-19.90760442 1.1699341 -10.02622891 0.1888502 0 0 Z " fill="#E0F4F9" transform="translate(376.5,139.625)"/>
<path d="M0 0 C0.66 0.33 1.32 0.66 2 1 C0.80117188 1.89138672 0.80117188 1.89138672 -0.421875 2.80078125 C-8.38032615 8.7833495 -15.79996458 15.11874477 -23 22 C-23.76054687 22.721875 -24.52109375 23.44375 -25.3046875 24.1875 C-27.17781476 26.19010611 -27.3926318 27.39699342 -28 30 C-28.99 30.66 -29.98 31.32 -31 32 C-31.73343428 35.06556598 -31.73343428 35.06556598 -32 38 C-36.50727647 37.39733215 -39.8587963 35.63400206 -43.8125 33.4375 C-44.40998047 33.10814453 -45.00746094 32.77878906 -45.62304688 32.43945312 C-47.08533998 31.63226733 -48.5431399 30.81695083 -50 30 C-47 29 -47 29 -44.95703125 29.77734375 C-43.89548828 30.35162109 -43.89548828 30.35162109 -42.8125 30.9375 C-42.09707031 31.31777344 -41.38164062 31.69804687 -40.64453125 32.08984375 C-40.10183594 32.39019531 -39.55914062 32.69054687 -39 33 C-39.33 31.68 -39.66 30.36 -40 29 C-39.01 29 -38.02 29 -37 29 C-37.66 28.67 -38.32 28.34 -39 28 C-39.1340625 27.3709375 -39.268125 26.741875 -39.40625 26.09375 C-40.16860025 23.40546227 -41.14994521 22.92544307 -43.5 21.5 C-46.84246575 19.47260274 -46.84246575 19.47260274 -47.71875 16.84375 C-47.8115625 16.2353125 -47.904375 15.626875 -48 15 C-44.39428893 15.59283087 -42.45570562 17.02741777 -39.75 19.4375 C-39.04359375 20.05496094 -38.3371875 20.67242187 -37.609375 21.30859375 C-36 23 -36 23 -36 25 C-35.34 25 -34.68 25 -34 25 C-34 25.66 -34 26.32 -34 27 C-28.77919592 25.53073056 -25.91738187 22.19625643 -22.3125 18.375 C-20.24513117 16.1997884 -18.15711047 14.08942487 -16 12 C-15.34 12 -14.68 12 -14 12 C-14 11.34 -14 10.68 -14 10 C-11.69833213 8.20916148 -9.39761099 6.52740758 -7 4.875 C-6.33226562 4.40707031 -5.66453125 3.93914062 -4.9765625 3.45703125 C-3.32185734 2.29873764 -1.66144693 1.14860235 0 0 Z " fill="#EAF2F5" transform="translate(282,139)"/>
<path d="M0 0 C0.66 0.33 1.32 0.66 2 1 C2 33.34 2 65.68 2 99 C3.485 98.505 3.485 98.505 5 98 C5.96070434 100.88211302 6.10581883 102.69850044 6.0625 105.6875 C6.05347656 106.49574219 6.04445313 107.30398438 6.03515625 108.13671875 C6.02355469 108.75160156 6.01195312 109.36648438 6 110 C5.67 110 5.34 110 5 110 C4.34 107.69 3.68 105.38 3 103 C1.35 102.67 -0.3 102.34 -2 102 C-1.01 101.505 -1.01 101.505 0 101 C0 67.67 0 34.34 0 0 Z " fill="#64A0D1" transform="translate(250,183)"/>
<path d="M0 0 C5.86394904 0.75178834 11.69654286 2.34827143 17 5 C17 6.32 17 7.64 17 9 C16.34 9 15.68 9 15 9 C15.33 10.32 15.66 11.64 16 13 C13.24874911 12.71766639 10.49938663 12.42452667 7.75 12.125 C6.58404297 12.00705078 6.58404297 12.00705078 5.39453125 11.88671875 C-1.72431144 11.09573623 -1.72431144 11.09573623 -5 9 C-2.69 8.01 -0.38 7.02 2 6 C2 4.68 2 3.36 2 2 C1.34 1.34 0.68 0.68 0 0 Z " fill="#40548B" transform="translate(165,129)"/>
<path d="M0 0 C3 0.125 3 0.125 4 1.125 C4.12487758 2.93427281 4.17570846 4.74896107 4.1875 6.5625 C4.20167969 7.55121094 4.21585938 8.53992188 4.23046875 9.55859375 C4 12.125 4 12.125 2 14.125 C1.75660449 17.02383083 1.75660449 17.02383083 1.875 20.25 C1.89304688 21.34570312 1.91109375 22.44140625 1.9296875 23.5703125 C1.95289063 24.41335938 1.97609375 25.25640625 2 26.125 C2.99 26.455 3.98 26.785 5 27.125 C5.75 29.875 5.75 29.875 6 33.125 C4.0625 35.5 4.0625 35.5 2 37.125 C-0.4375 36.5 -0.4375 36.5 -3 35.125 C-3.8125 32 -3.8125 32 -4 29.125 C-2.68 28.465 -1.36 27.805 0 27.125 C0 21.185 0 15.245 0 9.125 C-1.32 8.465 -2.64 7.805 -4 7.125 C-4.04254356 5.12545254 -4.04080783 3.12458364 -4 1.125 C-3 0.125 -3 0.125 0 0 Z M-2 1.125 C-2.67958603 3.52219432 -2.67958603 3.52219432 -3 6.125 C-2.34 6.785 -1.68 7.445 -1 8.125 C-0.01 8.125 0.98 8.125 2 8.125 C2.33 6.145 2.66 4.165 3 2.125 C1.35 1.795 -0.3 1.465 -2 1.125 Z M0 28.125 C-0.99 28.785 -1.98 29.445 -3 30.125 C-2.67 31.445 -2.34 32.765 -2 34.125 C-0.68 34.125 0.64 34.125 2 34.125 C2.33 32.805 2.66 31.485 3 30.125 C2.01 29.465 1.02 28.805 0 28.125 Z " fill="#A1BBDD" transform="translate(250,284.875)"/>
<path d="M0 0 C7.95513685 2.98671508 15.33733789 7.75492557 22 13 C22.495 14.485 22.495 14.485 23 16 C19.51544974 14.67097798 16.18177003 13.129342 12.8347168 11.48706055 C6.41442031 8.35829169 0.34216924 6.02291932 -6.70703125 4.60546875 C-9 4 -9 4 -11 2 C-7.7 2 -4.4 2 -1 2 C-0.67 1.34 -0.34 0.68 0 0 Z " fill="#496392" transform="translate(218,150)"/>
<path d="M0 0 C-0.9590625 0.433125 -0.9590625 0.433125 -1.9375 0.875 C-4.15206079 1.82823451 -4.15206079 1.82823451 -5 4 C-8.08552604 4.77138151 -10.37834483 5.13987241 -13.5 4.4375 C-16.80248644 3.85956487 -18.85998396 4.91060668 -22 6 C-23.99963028 6.03845443 -26.00051633 6.04544281 -28 6 C-28.99 6.495 -28.99 6.495 -30 7 C-31.87379605 7.07033769 -33.75001102 7.0843022 -35.625 7.0625 C-36.62789063 7.05347656 -37.63078125 7.04445312 -38.6640625 7.03515625 C-39.43492187 7.02355469 -40.20578125 7.01195312 -41 7 C-29.62585107 -0.58276595 -13.12841022 -0.26671714 0 0 Z " fill="#65C2DC" transform="translate(346,146)"/>
<path d="M0 0 C-5.445 1.485 -5.445 1.485 -11 3 C-11 3.66 -11 4.32 -11 5 C-12.62395997 5.50336767 -14.24920541 6.00258976 -15.875 6.5 C-16.77992188 6.7784375 -17.68484375 7.056875 -18.6171875 7.34375 C-21 8 -21 8 -23 8 C-23 8.66 -23 9.32 -23 10 C-24.11375 10.391875 -25.2275 10.78375 -26.375 11.1875 C-29.31960666 12.42482967 -29.85882545 12.73606497 -31.4375 15.6875 C-31.623125 16.450625 -31.80875 17.21375 -32 18 C-32.33 17.34 -32.66 16.68 -33 16 C-33.99 16.66 -34.98 17.32 -36 18 C-38.33199388 18.07905064 -40.66832622 18.08798769 -43 18 C-41.99977656 15.37215915 -41.31609655 14.19309313 -38.88378906 12.70727539 C-37.58779785 12.15801392 -37.58779785 12.15801392 -36.265625 11.59765625 C-35.30503174 11.18427002 -34.34443848 10.77088379 -33.35473633 10.3449707 C-32.33017334 9.92175537 -31.30561035 9.49854004 -30.25 9.0625 C-28.69285278 8.40544067 -28.69285278 8.40544067 -27.10424805 7.73510742 C-5.390895 -1.34772375 -5.390895 -1.34772375 0 0 Z " fill="#94C7DE" transform="translate(305,154)"/>
<path d="M0 0 C2.46800047 1.15173355 4.04783565 2.04783565 6 4 C5.34 4 4.68 4 4 4 C5.4258086 7.45195767 7.09746334 9.1014256 10.125 11.25 C10.84945312 11.77078125 11.57390625 12.2915625 12.3203125 12.828125 C12.87460938 13.21484375 13.42890625 13.6015625 14 14 C13.67 14.99 13.34 15.98 13 17 C14.32 17.66 15.64 18.32 17 19 C7.08123084 19 -4.16156755 11.22440159 -13 7 C-10.68687448 6.20439857 -9.38802944 5.88161328 -7.01708984 6.60498047 C-6.33855957 6.93900879 -5.6600293 7.27303711 -4.9609375 7.6171875 C-4.21585938 7.97683594 -3.47078125 8.33648437 -2.703125 8.70703125 C-1.93484375 9.09246094 -1.1665625 9.47789062 -0.375 9.875 C0.40101563 10.25269531 1.17703125 10.63039062 1.9765625 11.01953125 C3.99018253 12.00187019 5.99688536 12.99645715 8 14 C8.66 14.33 9.32 14.66 10 15 C6.53005564 11.0963126 2.44775994 8.63411025 -2 6 C-1.34 4.02 -0.68 2.04 0 0 Z " fill="#D7E7F1" transform="translate(230,150)"/>
<path d="M0 0 C0 3 0 3 -1 5 C-3.50735386 6.17246111 -6.00508709 7.2610241 -8.5625 8.3125 C-13.21513538 10.26955274 -17.65060681 12.20202529 -21.875 15 C-22.90625 15.66 -23.9375 16.32 -25 17 C-25.66 16.67 -26.32 16.34 -27 16 C-26.0409375 15.5978125 -26.0409375 15.5978125 -25.0625 15.1875 C-22.66868314 14.11332248 -22.66868314 14.11332248 -22 11 C-18.85416275 8.40257499 -15.41555184 6.22643379 -12 4 C-10.98873047 3.33484375 -10.98873047 3.33484375 -9.95703125 2.65625 C-6.52869176 0.53718807 -4.04547215 -0.49036026 0 0 Z " fill="#5E9EC4" transform="translate(283,151)"/>
<path d="M0 0 C0.79212891 -0.020625 1.58425781 -0.04125 2.40039062 -0.0625 C4.69140625 -0.078125 4.69140625 -0.078125 8.4375 0.25 C9.0975 1.24 9.7575 2.23 10.4375 3.25 C9.4475 2.92 8.4575 2.59 7.4375 2.25 C-1.4309328 1.73280152 -11.27558086 1.59539621 -19.64453125 4.75 C-25.39694199 6.75322222 -31.08261858 6.8100236 -37.125 6.9375 C-38.22908203 6.97166016 -39.33316406 7.00582031 -40.47070312 7.04101562 C-43.16786703 7.12274786 -45.86473643 7.19213826 -48.5625 7.25 C-45.49636581 5.53445157 -42.76750503 4.78498057 -39.30859375 4.21484375 C-37.7781543 3.96057617 -37.7781543 3.96057617 -36.21679688 3.70117188 C-34.62448242 3.4469043 -34.62448242 3.4469043 -33 3.1875 C-31.44829102 2.92743164 -31.44829102 2.92743164 -29.86523438 2.66210938 C-19.93154505 1.03863228 -10.06693778 0.06854085 0 0 Z " fill="#B1E3EE" transform="translate(376.5625,139.75)"/>
<path d="M0 0 C0 0.66 0 1.32 0 2 C-1.02480469 2.51949219 -2.04960937 3.03898437 -3.10546875 3.57421875 C-4.46640243 4.27814996 -5.82706527 4.98260498 -7.1875 5.6875 C-7.86103516 6.02716797 -8.53457031 6.36683594 -9.22851562 6.71679688 C-13.54829637 8.9715117 -16.63162479 11.41064982 -20 15 C-25.09458484 18.11913357 -25.09458484 18.11913357 -28.375 17.6875 C-28.91125 17.460625 -29.4475 17.23375 -30 17 C-27.9413783 13.91206745 -27.1446688 13.52161393 -24 12 C-23.67 11.34 -23.34 10.68 -23 10 C-21.35 10 -19.7 10 -18 10 C-18 9.01 -18 8.02 -18 7 C-17.01 7 -16.02 7 -15 7 C-14.2575 6.030625 -13.515 5.06125 -12.75 4.0625 C-10.55922549 1.24104797 -10.12047055 1.0290791 -6.375 0.125 C-4.2510478 0.0463351 -2.12540846 0 0 0 Z " fill="#7B98C8" transform="translate(287,362)"/>
<path d="M0 0 C0.66 0 1.32 0 2 0 C2 19.47 2 38.94 2 59 C3.32 59.33 4.64 59.66 6 60 C6 60.66 6 61.32 6 62 C3.03 62.495 3.03 62.495 0 63 C0 42.21 0 21.42 0 0 Z " fill="#6383C1" transform="translate(250,321)"/>
<path d="M0 0 C11.06030896 -0.44045478 21.63134893 -0.0448344 32.5625 1.8125 C34.02236328 2.0604834 34.02236328 2.0604834 35.51171875 2.31347656 C42.118561 3.50837889 48.55176782 5.13599038 55 7 C55 7.33 55 7.66 55 8 C50.57951133 7.57900108 46.35468451 7.14117604 42.0625 6 C36.63381766 4.69788219 31.1475317 4.63797399 25.59399414 4.39453125 C20.91600289 4.16845189 16.57399787 3.68571713 12.03515625 2.4765625 C8.08949874 1.55262734 4.0325433 1.31990949 0 1 C0 0.67 0 0.34 0 0 Z " fill="#A0ABC4" transform="translate(124,141)"/>
<path d="M0 0 C0 0.33 0 0.66 0 1 C-0.71430176 1.1858667 -1.42860352 1.3717334 -2.16455078 1.56323242 C-20.05397456 6.14698218 -20.05397456 6.14698218 -37.4609375 12.25 C-40.15279258 13.04513258 -41.40978358 12.98207258 -44 12 C-37.5 9 -37.5 9 -33 9 C-33 8.34 -33 7.68 -33 7 C-29.7 6.67 -26.4 6.34 -23 6 C-23 5.34 -23 4.68 -23 4 C-21.33030865 3.52294533 -19.66022948 3.04720867 -17.98828125 2.578125 C-16.18714076 2.05441421 -14.40447803 1.46815934 -12.625 0.875 C-8.32113642 -0.16386362 -4.39939261 -0.17956705 0 0 Z " fill="#6F98C0" transform="translate(336,347)"/>
<path d="M0 0 C2.31284456 0.14026283 4.62527591 0.28735558 6.9375 0.4375 C8.86916016 0.55931641 8.86916016 0.55931641 10.83984375 0.68359375 C14 1 14 1 15 2 C17.54163804 2.30487582 20.07749402 2.56777591 22.625 2.8125 C31.04908926 3.69489527 38.89151563 5.56863496 47 8 C47 8.33 47 8.66 47 9 C41.07220096 8.37646386 35.19859835 7.61932368 29.31640625 6.66015625 C28.53482651 6.53313828 27.75324677 6.4061203 26.94798279 6.2752533 C25.31511515 6.00851272 23.68247139 5.74039826 22.05004883 5.47094727 C19.54558931 5.05972332 17.03947698 4.65976273 14.53320312 4.25976562 C12.93999028 3.9980883 11.34688699 3.73574284 9.75390625 3.47265625 C9.00500626 3.3548732 8.25610626 3.23709015 7.48451233 3.11573792 C2.22841194 2.22841194 2.22841194 2.22841194 0 0 Z " fill="#C4C2D8" transform="translate(121,340)"/>
<path d="M0 0 C-0.33588318 2.51912388 -0.57354954 3.67196119 -2.625 5.25 C-5.79350613 6.25058088 -8.69369539 6.06011463 -12 6 C-12.99 6.33 -13.98 6.66 -15 7 C-15.99 6.67 -16.98 6.34 -18 6 C-18 5.34 -18 4.68 -18 4 C-6.66287016 -0.59225513 -6.66287016 -0.59225513 0 0 Z " fill="#61BBDA" transform="translate(312,153)"/>
<path d="M0 0 C4.23322844 0.62045463 7.52290295 2.10523559 11.3125 4.0625 C12.38113281 4.61035156 13.44976562 5.15820312 14.55078125 5.72265625 C15.35902344 6.14417969 16.16726562 6.56570312 17 7 C17 7.66 17 8.32 17 9 C17.928125 9.268125 18.85625 9.53625 19.8125 9.8125 C22.76240366 10.91148371 24.05615186 11.62418561 26 14 C22.42355152 15.2380014 19.66305234 14.74926071 16 14 C16 12.35 16 10.7 16 9 C15.360625 8.87625 14.72125 8.7525 14.0625 8.625 C13.381875 8.41875 12.70125 8.2125 12 8 C11.67 7.34 11.34 6.68 11 6 C9.17712703 5.06154746 7.31635447 4.19564908 5.4375 3.375 C4.42558594 2.92898437 3.41367188 2.48296875 2.37109375 2.0234375 C1.58863281 1.68570313 0.80617187 1.34796875 0 1 C0 0.67 0 0.34 0 0 Z " fill="#6D83AC" transform="translate(215,160)"/>
<path d="M0 0 C0.33 0 0.66 0 1 0 C1.61028322 7.41058192 2.0500538 14.7575292 1.9609375 22.1953125 C1.94869141 23.25814453 1.93644531 24.32097656 1.92382812 25.41601562 C1.89170815 27.52694029 1.84649962 29.63771338 1.78710938 31.74804688 C1.70177348 37.40618751 2.0429739 41.00698872 5 46 C4.67 46.66 4.34 47.32 4 48 C3.01 47.67 2.02 47.34 1 47 C-0.1760003 44.6479994 -0.12084541 43.26265599 -0.11352539 40.64208984 C-0.11344986 39.74130707 -0.11337433 38.84052429 -0.11329651 37.91244507 C-0.10813522 36.93844757 -0.10297394 35.96445007 -0.09765625 34.9609375 C-0.0962413 33.96494537 -0.09482635 32.96895325 -0.09336853 31.94277954 C-0.08775936 28.75348947 -0.0752053 25.56426894 -0.0625 22.375 C-0.05748618 20.21614685 -0.05292307 18.05729259 -0.04882812 15.8984375 C-0.03778695 10.5989345 -0.02103988 5.29947222 0 0 Z " fill="#3C346F" transform="translate(114,287)"/>
<path d="M0 0 C-2.74677047 1.83118032 -4.05077251 2.38796943 -7.1484375 3.04296875 C-7.97939941 3.22649902 -8.81036133 3.4100293 -9.66650391 3.59912109 C-10.56030762 3.79328613 -11.45411133 3.98745117 -12.375 4.1875 C-21.24886617 6.18276125 -29.77927944 8.76571395 -38.33349609 11.85229492 C-39.57993896 12.29279175 -39.57993896 12.29279175 -40.8515625 12.7421875 C-41.58197754 13.0088623 -42.31239258 13.27553711 -43.06494141 13.55029297 C-45 14 -45 14 -48 13 C-40.68364103 8.83126794 -32.90650348 6.88513024 -24.8125 4.8125 C-23.44575913 4.45455564 -22.07922077 4.09583711 -20.71289062 3.73632812 C-5.79397491 -0.16554214 -5.79397491 -0.16554214 0 0 Z " fill="#CAE6F2" transform="translate(335,140)"/>
<path d="M0 0 C0.91007812 0.00902344 1.82015625 0.01804688 2.7578125 0.02734375 C3.80582031 0.04474609 3.80582031 0.04474609 4.875 0.0625 C1.86215659 2.07106227 0.09763215 2.60147593 -3.38671875 3.31640625 C-4.42376953 3.53103516 -5.46082031 3.74566406 -6.52929688 3.96679688 C-8.15448242 4.29260742 -8.15448242 4.29260742 -9.8125 4.625 C-11.40868164 4.95661133 -11.40868164 4.95661133 -13.03710938 5.29492188 C-18.72196499 6.45717463 -24.35558847 7.44160807 -30.125 8.0625 C-27.22407498 6.12854999 -26.22825263 5.76118059 -22.9375 5.4375 C-21.679375 5.31375 -20.42125 5.19 -19.125 5.0625 C-19.125 4.0725 -19.125 3.0825 -19.125 2.0625 C-17.86042969 1.97162109 -17.86042969 1.97162109 -16.5703125 1.87890625 C-15.47460938 1.79511719 -14.37890625 1.71132812 -13.25 1.625 C-12.15945313 1.54378906 -11.06890625 1.46257812 -9.9453125 1.37890625 C-6.34096782 0.97454071 -3.74638529 -0.04803058 0 0 Z " fill="#6BB0CC" transform="translate(339.125,136.9375)"/>
<path d="M0 0 C1 1 1 1 1.09765625 3.50390625 C1.08605469 4.51324219 1.07445312 5.52257812 1.0625 6.5625 C1.05347656 7.57441406 1.04445313 8.58632812 1.03515625 9.62890625 C1.02355469 10.41136719 1.01195312 11.19382813 1 12 C0.67 12 0.34 12 0 12 C-0.33 9.03 -0.66 6.06 -1 3 C-14.365 3.495 -14.365 3.495 -28 4 C-20.34863976 -1.10090682 -8.89357023 -0.59290468 0 0 Z " fill="#B9E0F0" transform="translate(364,124)"/>
<path d="M0 0 C2.375 0.25 2.375 0.25 5 1 C6.3125 3.0625 6.3125 3.0625 7 5 C8.65 5 10.3 5 12 5 C12 5.66 12 6.32 12 7 C16.455 6.505 16.455 6.505 21 6 C21 5.01 21 4.02 21 3 C24 2 27 1 30 0 C30 0.66 30 1.32 30 2 C24.76160808 6.30216868 19.38424202 9.01444634 12.5390625 8.6015625 C7.82993371 7.48586122 3.72494089 5.05920678 0 2 C0 1.34 0 0.68 0 0 Z " fill="#C7D3E8" transform="translate(235,377)"/>
<path d="M0 0 C4.12751449 0.60698743 7.3321148 2.03810791 11 4 C10.67 2.68 10.34 1.36 10 0 C10.763125 0.309375 11.52625 0.61875 12.3125 0.9375 C14.18789677 1.67893593 16.08684652 2.36228217 18 3 C18 4.98 18 6.96 18 9 C13.49272353 8.39733215 10.1412037 6.63400206 6.1875 4.4375 C5.59001953 4.10814453 4.99253906 3.77878906 4.37695312 3.43945312 C2.91466002 2.63226733 1.4568601 1.81695083 0 1 C0 0.67 0 0.34 0 0 Z " fill="#EDF3F8" transform="translate(232,168)"/>
<path d="M0 0 C0.33 0 0.66 0 1 0 C1.02505615 0.68102783 1.0501123 1.36205566 1.07592773 2.0637207 C1.19190952 5.14683755 1.31462616 8.22965046 1.4375 11.3125 C1.47681641 12.38435547 1.51613281 13.45621094 1.55664062 14.56054688 C1.59853516 15.58857422 1.64042969 16.61660156 1.68359375 17.67578125 C1.72025146 18.62364502 1.75690918 19.57150879 1.79467773 20.5480957 C1.91430187 23.136171 1.91430187 23.136171 3 26 C3.66 25.67 4.32 25.34 5 25 C5.96070434 27.88211302 6.10581883 29.69850044 6.0625 32.6875 C6.05347656 33.49574219 6.04445313 34.30398438 6.03515625 35.13671875 C6.02355469 35.75160156 6.01195312 36.36648438 6 37 C5.67 37 5.34 37 5 37 C4.01 33.535 4.01 33.535 3 30 C1.35 29.67 -0.3 29.34 -2 29 C-1.34 28.67 -0.68 28.34 0 28 C0 18.76 0 9.52 0 0 Z " fill="#6293CA" transform="translate(250,256)"/>
<path d="M0 0 C1.4540625 0.0309375 1.4540625 0.0309375 2.9375 0.0625 C2.9375 0.7225 2.9375 1.3825 2.9375 2.0625 C4.5875 1.7325 6.2375 1.4025 7.9375 1.0625 C4.64796256 4.74678193 1.33617511 6.9031504 -3.0625 9.0625 C-4.0525 8.7325 -5.0425 8.4025 -6.0625 8.0625 C-3.88526119 0.07929104 -3.88526119 0.07929104 0 0 Z " fill="#DEE6EA" transform="translate(255.0625,168.9375)"/>
<path d="M0 0 C6.19182809 -0.56096904 11.61465129 1.47506774 17.4375 3.3125 C18.44876953 3.62123047 19.46003906 3.92996094 20.50195312 4.24804688 C25.81805051 5.89523948 30.93766895 7.68599495 36 10 C32.52176885 11.15941038 30.54104422 10.70820884 27 10 C27 9.34 27 8.68 27 8 C25.71222656 7.72414062 24.42445313 7.44828125 23.09765625 7.1640625 C18.16081851 6.06698745 13.30242528 4.75239448 8.4375 3.375 C7.61958984 3.14554688 6.80167969 2.91609375 5.95898438 2.6796875 C3.9720488 2.1219512 1.98593489 1.56128904 0 1 C0 0.67 0 0.34 0 0 Z " fill="#C7D3E3" transform="translate(179,149)"/>
<path d="M0 0 C-3.63 0.99 -7.26 1.98 -11 3 C-11 3.66 -11 4.32 -11 5 C-12.62395997 5.50336767 -14.24920541 6.00258976 -15.875 6.5 C-16.77992188 6.7784375 -17.68484375 7.056875 -18.6171875 7.34375 C-21 8 -21 8 -23 8 C-23 8.66 -23 9.32 -23 10 C-24.98 10 -26.96 10 -29 10 C-26.93124756 5.86249512 -20.32848841 4.85671873 -16.1875 3.3125 C-15.08083984 2.88388672 -13.97417969 2.45527344 -12.83398438 2.01367188 C-11.76857422 1.61341797 -10.70316406 1.21316406 -9.60546875 0.80078125 C-8.62731201 0.43122314 -7.64915527 0.06166504 -6.64135742 -0.3190918 C-4 -1 -4 -1 0 0 Z " fill="#C4E3EF" transform="translate(305,154)"/>
<path d="M0 0 C-1.67766236 3.35532472 -4.6491571 3.87111893 -8.0625 5.125 C-12.95113862 6.49125708 -17.97075807 6.16370046 -23 6 C-19.65836994 3.77224663 -16.45287175 2.87261136 -12.625 1.875 C-11.635 1.60236328 -11.635 1.60236328 -10.625 1.32421875 C-7.00469039 0.36505306 -3.74589021 -0.21694345 0 0 Z " fill="#A4D6E4" transform="translate(328,147)"/>
<path d="M0 0 C2 1 2 1 4 4 C2.10545176 4.96087136 0.20930419 5.91858969 -1.6875 6.875 C-2.74324219 7.40867188 -3.79898437 7.94234375 -4.88671875 8.4921875 C-7.55995905 9.78688105 -10.2271133 10.94023254 -13 12 C-12.34 11.01 -11.68 10.02 -11 9 C-10.34 9 -9.68 9 -9 9 C-8.67 8.01 -8.34 7.02 -8 6 C-6.15234375 4.39453125 -6.15234375 4.39453125 -3.9375 2.8125 C-3.20402344 2.28269531 -2.47054688 1.75289062 -1.71484375 1.20703125 C-1.14894531 0.80871094 -0.58304687 0.41039062 0 0 Z " fill="#6B9BC2" transform="translate(269,156)"/>
<path d="M0 0 C2.91517292 1.07401108 4.77810176 1.77810176 7 4 C5.3828125 5.57421875 5.3828125 5.57421875 3 7 C0.0546875 6.70703125 0.0546875 6.70703125 -3.125 5.8125 C-4.17945313 5.53019531 -5.23390625 5.24789062 -6.3203125 4.95703125 C-9 4 -9 4 -11 2 C-7.7 2 -4.4 2 -1 2 C-0.67 1.34 -0.34 0.68 0 0 Z " fill="#657DA4" transform="translate(218,150)"/>
<path d="M0 0 C2.0836309 0.14151828 4.16689938 0.28837936 6.25 0.4375 C7.99023438 0.55931641 7.99023438 0.55931641 9.765625 0.68359375 C14.67405063 1.16376582 14.67405063 1.16376582 17 2 C17.33 2.66 17.66 3.32 18 4 C18.99 4.33 19.98 4.66 21 5 C24 6 24 6 25 8 C16.45923559 6.32234985 8.27435964 3.65997819 0 1 C0 0.67 0 0.34 0 0 Z " fill="#A0ACC7" transform="translate(182,144)"/>
<path d="M0 0 C5.76368775 0.47720054 9.71125856 2.12773955 14.6875 5 C19.18705594 7.70377188 19.18705594 7.70377188 24.07348633 9.484375 C26.82253214 10.220148 28.12924759 11.92880983 30 14 C22.98578907 11.83458719 16.52962492 9.02828258 9.9375 5.8125 C8.49600586 5.11737305 8.49600586 5.11737305 7.02539062 4.40820312 C4.6812173 3.2769354 2.33954029 2.14080989 0 1 C0 0.67 0 0.34 0 0 Z " fill="#BCCBDC" transform="translate(217,156)"/>
<path d="M0 0 C0 0.66 0 1.32 0 2 C-1.95585325 3.00484204 -3.91476237 4.00373805 -5.875 5 C-6.96554687 5.556875 -8.05609375 6.11375 -9.1796875 6.6875 C-12 8 -12 8 -14 8 C-14 5 -14 5 -12.4375 2.875 C-8.61203483 -0.06766552 -4.69792657 0 0 0 Z " fill="#6489BC" transform="translate(287,362)"/>
<path d="M0 0 C0.75539062 0.45761719 1.51078125 0.91523438 2.2890625 1.38671875 C5.4371984 3.23554245 8.46023485 4.848667 11.9140625 6.07421875 C8.79226842 7.08115037 6.92436581 7.04711599 3.8046875 6.078125 C2.67353516 5.73491211 2.67353516 5.73491211 1.51953125 5.38476562 C0.35357422 5.01448242 0.35357422 5.01448242 -0.8359375 4.63671875 C-1.62871094 4.39373047 -2.42148438 4.15074219 -3.23828125 3.90039062 C-5.19029096 3.3006768 -7.13850633 2.68863754 -9.0859375 2.07421875 C-2.73177503 -1.21241701 -2.73177503 -1.21241701 0 0 Z " fill="#A4A2C1" transform="translate(177.0859375,347.92578125)"/>
<path d="M0 0 C0.7425 0.309375 1.485 0.61875 2.25 0.9375 C6.6088195 2.17249886 10.68346575 2.3806456 15.1953125 2.55859375 C18.28935632 3.04553937 19.6958858 3.9329119 22 6 C20.52093108 6.02689216 19.04172517 6.04634621 17.5625 6.0625 C16.32693359 6.07990234 16.32693359 6.07990234 15.06640625 6.09765625 C13 6 13 6 12 5 C9.81980521 4.60333773 7.6303537 4.25684763 5.4375 3.9375 C3.64119141 3.67259766 3.64119141 3.67259766 1.80859375 3.40234375 C0.88175781 3.26957031 -0.04507813 3.13679688 -1 3 C-0.67 2.01 -0.34 1.02 0 0 Z " fill="#372F6C" transform="translate(123,337)"/>
<path d="M0 0 C0 3.96 0 7.92 0 12 C-0.33 12 -0.66 12 -1 12 C-1 10.02 -1 8.04 -1 6 C-1.99 6.33 -2.98 6.66 -4 7 C-5.32 5.02 -6.64 3.04 -8 1 C-4.59449725 -1.06762667 -4.18836538 -1.04709135 0 0 Z " fill="#385991" transform="translate(249,177)"/>
<path d="M0 0 C1.875 0.25 1.875 0.25 4 1 C5.25 3.0625 5.25 3.0625 6 5 C5.67 5.33 5.34 5.66 5 6 C4.75266863 10.14276875 4.75266863 10.14276875 6 14 C5.01 14 4.02 14 3 14 C2.67 12.02 2.34 10.04 2 8 C1.34 8 0.68 8 0 8 C0 5.36 0 2.72 0 0 Z " fill="#46548E" transform="translate(242,280)"/>
<path d="M0 0 C-0.99 0 -1.98 0 -3 0 C-3 0.66 -3 1.32 -3 2 C-9.24273068 4.4793824 -14.28299653 5.31985731 -21 5 C-17.70212712 2.80141808 -14.86193643 1.91684826 -11.0625 0.8125 C-9.83660156 0.44769531 -8.61070312 0.08289063 -7.34765625 -0.29296875 C-4.29101247 -0.93853762 -2.84569773 -1.1197357 0 0 Z " fill="#78B9D2" transform="translate(335,130)"/>
<path d="M0 0 C5.34844008 0.53484401 9.35796103 2.46690767 14 5 C13.67 5.66 13.34 6.32 13 7 C10.69 7 8.38 7 6 7 C5.34 5.68 4.68 4.36 4 3 C3.34 3 2.68 3 2 3 C2 2.34 2 1.68 2 1 C1.34 0.67 0.68 0.34 0 0 Z " fill="#3F598A" transform="translate(209,159)"/>
<path d="M0 0 C-2.39476769 2.85801784 -4.30490883 3.57264465 -7.9375 4.25 C-8.79214844 4.42015625 -9.64679688 4.5903125 -10.52734375 4.765625 C-12.99533017 4.99955736 -14.66014099 4.76004701 -17 4 C-5.47835991 -0.59225513 -5.47835991 -0.59225513 0 0 Z " fill="#75BBD6" transform="translate(311,153)"/>
<path d="M0 0 C6.25107435 0.42954941 12.04204521 1.01401507 18 3 C17.67 3.66 17.34 4.32 17 5 C16.01 4.67 15.02 4.34 14 4 C14 4.66 14 5.32 14 6 C13.01 6 12.02 6 11 6 C11 5.34 11 4.68 11 4 C7.56484998 3.37542727 4.50935186 3 1 3 C0.67 2.01 0.34 1.02 0 0 Z " fill="#445687" transform="translate(156,145)"/>
<path d="M0 0 C0.66 0 1.32 0 2 0 C3.0625 1.875 3.0625 1.875 4 4 C3.67 4.66 3.34 5.32 3 6 C4.65 6.33 6.3 6.66 8 7 C6.4375 7.75 6.4375 7.75 4 8 C1.49713591 6.86915563 -0.67007722 5.47860484 -3 4 C-2.67 3.01 -2.34 2.02 -2 1 C-1.34 1.33 -0.68 1.66 0 2 C0 1.34 0 0.68 0 0 Z " fill="#363274" transform="translate(180,345)"/>
<path d="M0 0 C-3.79063436 3.79063436 -10.3049522 3.86545783 -15.50390625 4.125 C-17.33641126 4.125 -19.16879834 4.06910195 -21 4 C-21 3.67 -21 3.34 -21 3 C-18.69 3 -16.38 3 -14 3 C-14 2.34 -14 1.68 -14 1 C-9.32798795 -0.20568053 -4.78503708 -0.09382426 0 0 Z " fill="#BED8E9" transform="translate(379,340)"/>
<path d="M0 0 C1.4540625 0.0309375 1.4540625 0.0309375 2.9375 0.0625 C-0.0426241 2.0492494 -2.48546075 2.97102573 -5.875 4.0625 C-6.89207031 4.3925 -7.90914063 4.7225 -8.95703125 5.0625 C-10.49423828 5.5575 -10.49423828 5.5575 -12.0625 6.0625 C-14.0631912 6.72708947 -16.06339827 7.39314456 -18.0625 8.0625 C-18.0625 7.4025 -18.0625 6.7425 -18.0625 6.0625 C-17.06347656 5.71316406 -16.06445312 5.36382812 -15.03515625 5.00390625 C-13.73171795 4.54442081 -12.4283354 4.08477721 -11.125 3.625 C-10.1359668 3.27985352 -10.1359668 3.27985352 -9.12695312 2.92773438 C-0.90512447 0.01847193 -0.90512447 0.01847193 0 0 Z " fill="#C4E4F5" transform="translate(314.0625,132.9375)"/>
<path d="M0 0 C2.20887757 0.11498267 4.41710787 0.24243505 6.625 0.375 C8.46964844 0.47941406 8.46964844 0.47941406 10.3515625 0.5859375 C13.83653855 0.9814487 16.73049601 1.76261849 20 3 C20 3.33 20 3.66 20 4 C12.91923749 4.40850553 6.80074041 2.90420731 0 1 C0 0.67 0 0.34 0 0 Z " fill="#B5B3CB" transform="translate(121,340)"/>
<path d="M0 0 C-0.57344937 2.86724686 -0.8614515 3.8614515 -3 6 C-3.99 5.67 -4.98 5.34 -6 5 C-7.1875 2.4375 -7.1875 2.4375 -8 0 C-5.13822943 -1.43088528 -3.06624227 -0.59991697 0 0 Z " fill="#3C568C" transform="translate(197,154)"/>
<path d="M0 0 C-3.1664178 2.70972293 -5.96936423 3.76249424 -10 4.75 C-11.546875 5.14445312 -11.546875 5.14445312 -13.125 5.546875 C-15.87430977 5.98019013 -17.41340535 5.92023079 -20 5 C-17.60712296 4.1572257 -15.21128981 3.32562998 -12.8125 2.5 C-11.80219727 2.14228516 -11.80219727 2.14228516 -10.77148438 1.77734375 C-7.06795533 0.51272408 -3.92059464 -0.30451221 0 0 Z " fill="#EFF5F9" transform="translate(333,119)"/>
<path d="M0 0 C-0.71027344 0.48210937 -1.42054688 0.96421875 -2.15234375 1.4609375 C-3.07144531 2.09257812 -3.99054688 2.72421875 -4.9375 3.375 C-5.85402344 4.00148437 -6.77054687 4.62796875 -7.71484375 5.2734375 C-10.08387164 6.79771071 -10.08387164 6.79771071 -11 9 C-11.66 9 -12.32 9 -13 9 C-13 7.68 -13 6.36 -13 5 C-11.5459375 4.5978125 -11.5459375 4.5978125 -10.0625 4.1875 C-8.5465625 3.5996875 -8.5465625 3.5996875 -7 3 C-6.67 2.01 -6.34 1.02 -6 0 C-3 -1 -3 -1 0 0 Z " fill="#C2E0F3" transform="translate(271,156)"/>
<path d="M0 0 C2.375 0.25 2.375 0.25 5 1 C6.3125 3.0625 6.3125 3.0625 7 5 C8.65 5 10.3 5 12 5 C12 5.66 12 6.32 12 7 C7.02125936 6.52583422 3.93281242 5.0900669 0 2 C0 1.34 0 0.68 0 0 Z " fill="#9A98B8" transform="translate(235,377)"/>
<path d="M0 0 C0.96070434 2.88211302 1.10581883 4.69850044 1.0625 7.6875 C1.05347656 8.49574219 1.04445313 9.30398438 1.03515625 10.13671875 C1.02355469 10.75160156 1.01195312 11.36648438 1 12 C0.67 12 0.34 12 0 12 C-0.66 9.69 -1.32 7.38 -2 5 C-3.65 4.67 -5.3 4.34 -7 4 C-6.34 3.67 -5.68 3.34 -5 3 C-5 2.34 -5 1.68 -5 1 C-2 0 -2 0 0 0 Z " fill="#6D98C3" transform="translate(255,281)"/>
<path d="M0 0 C-5.90377651 2.8751252 -11.53287812 4.83805848 -18 6 C-14.22385347 2.22385347 -5.25712789 -2.62856395 0 0 Z " fill="#BFDCEC" transform="translate(305,148)"/>
<path d="M0 0 C-3.41211416 2.27474277 -5.6568529 2.56629644 -9.6875 3.125 C-10.86699219 3.29257812 -12.04648437 3.46015625 -13.26171875 3.6328125 C-14.16535156 3.75398438 -15.06898438 3.87515625 -16 4 C-15 2 -15 2 -12.5 0.875 C-8.2443204 -0.1889199 -4.35855223 -0.17434209 0 0 Z " fill="#6E9FC3" transform="translate(352,343)"/>
<path d="M0 0 C0.66 0.33 1.32 0.66 2 1 C0.87926138 1.83905565 -0.24674547 2.67107831 -1.375 3.5 C-2.00148438 3.9640625 -2.62796875 4.428125 -3.2734375 4.90625 C-5 6 -5 6 -7 6 C-7.66 7.32 -8.32 8.64 -9 10 C-9.33 8.68 -9.66 7.36 -10 6 C-8.3811004 4.96951963 -6.75467511 3.95085322 -5.125 2.9375 C-4.22007812 2.36902344 -3.31515625 1.80054688 -2.3828125 1.21484375 C-1.20332031 0.61349609 -1.20332031 0.61349609 0 0 Z " fill="#72ABCC" transform="translate(260,172)"/>
<path d="M0 0 C2.6875 -0.3125 2.6875 -0.3125 6 0 C8.875 2.5 8.875 2.5 11 5 C10.01 5.495 10.01 5.495 9 6 C6.8359375 5.00390625 6.8359375 5.00390625 4.375 3.5625 C3.55773437 3.08941406 2.74046875 2.61632812 1.8984375 2.12890625 C1.27195313 1.75636719 0.64546875 1.38382813 0 1 C0 0.67 0 0.34 0 0 Z " fill="#C4D8EE" transform="translate(213,146)"/>
<path d="M0 0 C0.99 0.33 1.98 0.66 3 1 C4.1875 3.5625 4.1875 3.5625 5 6 C2.6568787 5.74438677 0.32156597 5.40729228 -2 5 C-2.33 4.34 -2.66 3.68 -3 3 C-2.34 3 -1.68 3 -1 3 C-0.67 2.01 -0.34 1.02 0 0 Z " fill="#383378" transform="translate(205,355)"/>
<path d="M0 0 C-0.49831724 3.68754757 -1.10067643 5.60490662 -4 8 C-4.66 7.67 -5.32 7.34 -6 7 C-5.34 6.34 -4.68 5.68 -4 5 C-4 3.68 -4 2.36 -4 1 C-2 0 -2 0 0 0 Z " fill="#92C1DD" transform="translate(385,332)"/>
<path d="M0 0 C1.58467728 0.28427417 3.1677057 0.57774818 4.75 0.875 C6.07257813 1.11863281 6.07257813 1.11863281 7.421875 1.3671875 C9.86947744 1.96796264 11.80599857 2.77997117 14 4 C8.78020872 4.1799928 4.92737019 3.97094808 0 2 C0 1.34 0 0.68 0 0 Z " fill="#455C87" transform="translate(176,149)"/>
<path d="M0 0 C3 1 3 1 3 1 Z M4 2 C4 2.33 4 2.66 4 3 C0.7 3.66 -2.6 4.32 -6 5 C-6 4.01 -6 3.02 -6 2 C-2.7169902 0.3584951 0.42545033 1.48111376 4 2 Z " fill="#53A3CD" transform="translate(291,147)"/>
<path d="M0 0 C2.31 0 4.62 0 7 0 C4.702779 1.74271938 2.40133271 3.39911152 0 5 C-0.99 4.67 -1.98 4.34 -3 4 C-2.67 3.34 -2.34 2.68 -2 2 C-1.34 2 -0.68 2 0 2 C0 1.34 0 0.68 0 0 Z " fill="#CAE1EE" transform="translate(252,173)"/>
<path d="M0 0 C-2.06756277 2.7972908 -3.14440371 3.02692273 -6.6875 3.6875 C-7.780625 3.790625 -8.87375 3.89375 -10 4 C-10 3.01 -10 2.02 -10 1 C-3.71428571 -1.42857143 -3.71428571 -1.42857143 0 0 Z " fill="#6FBED8" transform="translate(332,148)"/>
<path d="M0 0 C2.97 0 5.94 0 9 0 C9.66 1.32 10.32 2.64 11 4 C7.1936543 3.32829194 3.64793184 2.27253436 0 1 C0 0.67 0 0.34 0 0 Z " fill="#A8A7C4" transform="translate(189,355)"/>
<path d="M0 0 C4.83256305 0.41421969 6.82679218 2.46413986 10 6 C9.01 6.495 9.01 6.495 8 7 C6.66382648 6.02471263 5.3311249 5.04466681 4 4.0625 C3.2575 3.51722656 2.515 2.97195312 1.75 2.41015625 C1.1725 1.94480469 0.595 1.47945312 0 1 C0 0.67 0 0.34 0 0 Z " fill="#C5DBEE" transform="translate(234,159)"/>
<path d="M0 0 C5.75 -0.125 5.75 -0.125 8 1 C8 1.99 8 2.98 8 4 C5.69 3.67 3.38 3.34 1 3 C0.67 2.01 0.34 1.02 0 0 Z " fill="#333171" transform="translate(241,379)"/>
<path d="M0 0 C2.64 0 5.28 0 8 0 C7.67 0.66 7.34 1.32 7 2 C7.33 2.99 7.66 3.98 8 5 C4.62496331 3.8141763 2.35277269 2.72426311 0 0 Z " fill="#8F90B5" transform="translate(227,372)"/>
<path d="M0 0 C3.3 0.33 6.6 0.66 10 1 C9.67 1.99 9.34 2.98 9 4 C5.85262818 3.30058404 2.97411124 2.23921302 0 1 C0 0.67 0 0.34 0 0 Z " fill="#9897B7" transform="translate(203,360)"/>
<path d="M0 0 C0.66 0.33 1.32 0.66 2 1 C2 1.66 2 2.32 2 3 C2.66 3 3.32 3 4 3 C4 3.66 4 4.32 4 5 C4.66 5.33 5.32 5.66 6 6 C5.01 6.33 4.02 6.66 3 7 C3 6.34 3 5.68 3 5 C2.0409375 4.566875 2.0409375 4.566875 1.0625 4.125 C-1 3 -1 3 -2 1 C-1.34 0.67 -0.68 0.34 0 0 Z " fill="#E7EDF1" transform="translate(244,161)"/>
<path d="M0 0 C1.45945288 0.08708669 2.91765868 0.19526907 4.375 0.3125 C5.59316406 0.39951172 5.59316406 0.39951172 6.8359375 0.48828125 C9 1 9 1 11 4 C9.53984709 3.71758359 8.08190207 3.42373386 6.625 3.125 C5.81289062 2.96257812 5.00078125 2.80015625 4.1640625 2.6328125 C2 2 2 2 0 0 Z " fill="#B9C2D9" transform="translate(196,148)"/>
<path d="M0 0 C1.32 0.66 2.64 1.32 4 2 C-1.2734375 5.22265625 -1.2734375 5.22265625 -3 6 C-3.66 5.67 -4.32 5.34 -5 5 C-4.360625 4.731875 -3.72125 4.46375 -3.0625 4.1875 C-0.66868314 3.11332248 -0.66868314 3.11332248 0 0 Z " fill="#81A2BF" transform="translate(261,162)"/>
<path d="M0 0 C0 0.66 0 1.32 0 2 C-3.465 3.485 -3.465 3.485 -7 5 C-7.33 4.34 -7.66 3.68 -8 3 C-3.375 0 -3.375 0 0 0 Z " fill="#6F90BA" transform="translate(287,362)"/>
<path d="M0 0 C-3.18762365 2.12508244 -5.26512223 2.5020163 -9 3 C-9 2.34 -9 1.68 -9 1 C-6.04335481 -0.4783226 -3.25770263 -0.06032783 0 0 Z " fill="#99CBDF" transform="translate(294,158)"/>
</svg>
